# xmcd
# Track frame offsets:
# 150
# 17643
# 32911
# 49710
# 68440
# 86482
# 102975
# 116201
# 136588
# 151555
# 168359
#
# Disc length: 2417 seconds
# Revision: 0
# Processed by: cddbd v1.5.2PL0 Copyright (c) Steve Scherf et al.
# Submitted via: VisiTrax 2.10.0.248 - For more info visit www.synapsa.com
#
DISCID=7c096f0b
DTITLE=Dierks Bentley - Long Trip Alone
DYEAR=2006
DGENRE=
TTITLE0=Every Mile A Memory
TTITLE1=Can't Live It Down
TTITLE2=Long Tip Alone
TTITLE3=That Don't Make It Easy Loving Me
TTITLE4=Soon As You Can
TTITLE5=Trying To Stop Your Leaving
TTITLE6=Hope For Me Yet
TTITLE7=The Heaven I'm Headed To
TTITLE8=Free And Easy (Down The Road I Go)
TTITLE9=Band Of Brothers
TTITLE10=Prodigal Son's Prayer
EXTD=
EXTT0=
EXTT1=
EXTT2=
EXTT3=
EXTT4=
EXTT5=
EXTT6=
EXTT7=
EXTT8=
EXTT9=
EXTT10=
PLAYORDER=
